<svg xmlns="http://www.w3.org/2000/svg" xmlns:xlink="http://www.w3.org/1999/xlink"><symbol id="arrow-next" viewBox="0 0 18 34">
<path d="M1 1L17 17L1 33" stroke="#AFAFAF"/>
</symbol><symbol id="arrow-prev" viewBox="0 0 18 34">
<path d="M17 1L0.999999 17L17 33" stroke="#AFAFAF"/>
</symbol><symbol id="logo" viewBox="0 0 87 20">
<path d="M0.676 5.168C0.676 3.69467 1.03133 2.568 1.742 1.788C2.45267 0.990666 3.50133 0.592 4.888 0.592C6.27467 0.592 7.32333 0.990666 8.034 1.788C8.74467 2.568 9.1 3.69467 9.1 5.168V5.74H6.396V4.986C6.396 3.79 5.91933 3.192 4.966 3.192C4.01267 3.192 3.536 3.79 3.536 4.986C3.536 5.662 3.72667 6.30333 4.108 6.91C4.48933 7.49933 4.94867 8.03667 5.486 8.522C6.04067 9.00733 6.59533 9.51867 7.15 10.056C7.70467 10.576 8.17267 11.2347 8.554 12.032C8.93533 12.812 9.126 13.6787 9.126 14.632C9.126 16.1053 8.762 17.2407 8.034 18.038C7.306 18.818 6.24867 19.208 4.862 19.208C3.47533 19.208 2.418 18.818 1.69 18.038C0.962 17.2407 0.598 16.1053 0.598 14.632V13.514H3.302V14.814C3.302 15.9927 3.796 16.582 4.784 16.582C5.772 16.582 6.266 15.9927 6.266 14.814C6.266 14.138 6.07533 13.5053 5.694 12.916C5.31267 12.3093 4.84467 11.7633 4.29 11.278C3.75267 10.7927 3.20667 10.29 2.652 9.77C2.09733 9.23267 1.62933 8.574 1.248 7.794C0.866667 6.99667 0.676 6.12133 0.676 5.168ZM11.1546 0.799999H14.0146V14.84C14.0146 16.0187 14.5086 16.608 15.4966 16.608C16.4846 16.608 16.9786 16.0187 16.9786 14.84V0.799999H19.6826V14.658C19.6826 16.1313 19.3186 17.2667 18.5906 18.064C17.8626 18.844 16.8053 19.234 15.4186 19.234C14.0319 19.234 12.9746 18.844 12.2466 18.064C11.5186 17.2667 11.1546 16.1313 11.1546 14.658V0.799999ZM26.376 0.799999C29.2187 0.799999 30.64 2.29933 30.64 5.298V7.664C30.64 10.6627 29.2187 12.162 26.376 12.162H25.024V19H22.164V0.799999H26.376ZM26.376 3.4H25.024V9.562H26.376C26.844 9.562 27.1907 9.432 27.416 9.172C27.6587 8.912 27.78 8.47 27.78 7.846V5.116C27.78 4.492 27.6587 4.05 27.416 3.79C27.1907 3.53 26.844 3.4 26.376 3.4ZM35.3448 3.4V8.47H39.2708V11.07H35.3448V16.4H40.2848V19H32.4848V0.799999H40.2848V3.4H35.3448ZM51.469 19H48.557C48.3837 18.48 48.297 17.7347 48.297 16.764V13.904C48.297 13.072 48.1497 12.4827 47.855 12.136C47.5604 11.772 47.0837 11.59 46.425 11.59H45.437V19H42.577V0.799999H46.893C48.3664 0.799999 49.441 1.14667 50.117 1.84C50.793 2.516 51.131 3.56467 51.131 4.986V6.416C51.131 8.288 50.507 9.51867 49.259 10.108C50.5244 10.6453 51.157 11.9367 51.157 13.982V16.79C51.157 17.778 51.261 18.5147 51.469 19ZM46.815 3.4H45.437V8.99H46.555C47.127 8.99 47.5517 8.84267 47.829 8.548C48.1237 8.25333 48.271 7.75933 48.271 7.066V5.272C48.271 4.024 47.7857 3.4 46.815 3.4ZM57.848 11.46V8.86H61.852V14.632C61.852 16.1053 61.488 17.2407 60.76 18.038C60.032 18.818 58.9746 19.208 57.588 19.208C56.2013 19.208 55.144 18.818 54.416 18.038C53.688 17.2407 53.324 16.1053 53.324 14.632V5.168C53.324 3.69467 53.688 2.568 54.416 1.788C55.144 0.990666 56.2013 0.592 57.588 0.592C58.9746 0.592 60.032 0.990666 60.76 1.788C61.488 2.568 61.852 3.69467 61.852 5.168V6.936H59.148V4.986C59.148 3.79 58.654 3.192 57.666 3.192C56.678 3.192 56.184 3.79 56.184 4.986V14.814C56.184 15.9927 56.678 16.582 57.666 16.582C58.654 16.582 59.148 15.9927 59.148 14.814V11.46H57.848ZM66.506 19V12.968L62.892 0.799999H65.882L68.066 9.094L70.25 0.799999H72.98L69.366 12.968V19H66.506ZM78.6086 0.799999L80.7146 13.722L82.6646 0.799999H86.6426V19H83.9386V5.948L81.9626 19H79.2586L77.1266 6.13V19H74.6306V0.799999H78.6086Z" fill="white"/>
</symbol><symbol id="ok" viewBox="0 0 25 25">
<path d="M12.5 0C5.59692 0 0 5.59692 0 12.5C0 19.4031 5.59692 25 12.5 25C19.4031 25 25 19.4031 25 12.5C25 5.59692 19.4031 0 12.5 0Z" fill="white"/>
<path d="M12.6803 6.88879C13.5788 6.88879 14.3095 7.64309 14.3095 8.57061C14.3095 9.49533 13.5788 10.2496 12.6803 10.2496C11.7818 10.2496 11.0511 9.49533 11.0511 8.57061C11.0511 7.64309 11.7818 6.88879 12.6803 6.88879ZM12.6803 12.6299C14.8508 12.6299 16.6153 10.8084 16.6153 8.57061C16.6153 6.33005 14.8508 4.50854 12.6803 4.50854C10.5099 4.50854 8.74807 6.33005 8.74807 8.57061C8.74807 10.8084 10.5099 12.6299 12.6803 12.6299ZM14.2716 15.9432C15.0727 15.7532 15.844 15.4264 16.5558 14.9654C17.0943 14.6162 17.2567 13.8815 16.9184 13.3255C16.5774 12.7668 15.8684 12.5991 15.3271 12.9511C13.7169 13.996 11.6438 13.996 10.0309 12.9511C9.49231 12.5991 8.78055 12.7668 8.44226 13.3255C8.10397 13.8815 8.26635 14.6162 8.80491 14.9654C9.51667 15.4264 10.288 15.7532 11.089 15.9432L8.8888 18.2117C8.43956 18.6755 8.43956 19.4298 8.8888 19.8935C9.11613 20.1254 9.40841 20.2427 9.7034 20.2427C9.99839 20.2427 10.2934 20.1254 10.5207 19.8935L12.6803 17.6641L14.8427 19.8935C15.2919 20.3601 16.0199 20.3601 16.4719 19.8935C16.9211 19.4298 16.9211 18.6755 16.4719 18.2117L14.2716 15.9432Z" fill="#030A1A"/>
</symbol><symbol id="reddit" viewBox="0 0 25 25">
<path d="M12.5 0C5.59692 0 0 5.59692 0 12.5C0 19.4031 5.59692 25 12.5 25C19.4031 25 25 19.4031 25 12.5C25 5.59692 19.4031 0 12.5 0Z" fill="white"/>
<path d="M13.8509 5.55566C13.4055 5.55566 12.9876 5.7816 12.7195 6.10741C12.4514 6.43323 12.3037 6.8304 12.196 7.24897C12.0251 7.92201 11.9723 8.66877 11.9596 9.34181C10.7079 9.42505 9.57444 9.79606 8.63303 10.3692C8.25098 10.0481 7.79083 9.86978 7.34968 9.87454C6.84731 9.87929 6.37028 10.0957 6.01566 10.5404C5.3381 11.3895 5.4162 12.7784 6.20141 13.6036C6.15286 13.8581 6.11698 14.1197 6.11698 14.3837C6.11698 17.1805 8.97498 19.4446 12.5 19.4446C16.025 19.4446 18.883 17.1781 18.883 14.3837C18.883 14.1197 18.8471 13.8581 18.7986 13.6036C19.5838 12.7784 19.6619 11.3895 18.9843 10.5404C18.6297 10.0957 18.1527 9.87929 17.6503 9.87454C17.2091 9.86978 16.749 10.0481 16.3669 10.3692C15.4298 9.79843 14.3026 9.42743 13.0572 9.34181C13.0741 8.72109 13.1184 8.07659 13.243 7.59143C13.3211 7.28702 13.414 7.06584 13.5132 6.94455C13.6124 6.82326 13.6841 6.77332 13.8509 6.77332C14.2118 6.77332 14.2583 6.88985 14.4757 7.17286C14.5854 7.31556 14.7121 7.49393 14.9147 7.66754C15.1174 7.84115 15.4171 7.99098 15.7421 7.99098V6.77332C15.6514 6.77332 15.6345 6.77094 15.5733 6.71624C15.5121 6.66154 15.4276 6.5355 15.3031 6.37378C15.054 6.04796 14.5707 5.55566 13.8509 5.55566ZM17.3632 5.66982C16.5231 5.66982 15.8435 6.43561 15.8435 7.38215C15.8435 8.32869 16.5231 9.09448 17.3632 9.09448C18.2033 9.09448 18.883 8.32869 18.883 7.38215C18.883 6.43561 18.2033 5.66982 17.3632 5.66982ZM17.3632 6.27865C17.9036 6.27865 18.3426 6.77332 18.3426 7.38215C18.3426 7.99098 17.9036 8.48565 17.3632 8.48565C16.8229 8.48565 16.3838 7.99098 16.3838 7.38215C16.3838 6.77332 16.8229 6.27865 17.3632 6.27865ZM12.5 10.2931C15.491 10.2931 18.0218 12.1695 18.0218 14.3837C18.0218 16.6002 15.491 18.4742 12.5 18.4742C9.50901 18.4742 6.97818 16.6002 6.97818 14.3837C6.97818 12.1695 9.50901 10.2931 12.5 10.2931ZM7.36656 10.8449C7.51643 10.8472 7.67263 10.8853 7.82249 10.959C7.28002 11.4228 6.84942 11.9555 6.55602 12.5572C6.35339 12.0863 6.40827 11.4989 6.65734 11.1873C6.83887 10.959 7.09005 10.8425 7.36656 10.8449ZM17.6334 10.8449C17.9099 10.8425 18.1611 10.959 18.3426 11.1873C18.5917 11.4989 18.6466 12.0863 18.4439 12.5572C18.1506 11.9555 17.72 11.4228 17.1775 10.959C17.3273 10.8853 17.4835 10.8472 17.6334 10.8449ZM10.3385 12.3669C9.79819 12.3669 9.35914 12.8616 9.35914 13.4704C9.35914 14.0793 9.79819 14.5739 10.3385 14.5739C10.8789 14.5739 11.3179 14.0793 11.3179 13.4704C11.3179 12.8616 10.8789 12.3669 10.3385 12.3669ZM14.6614 12.3669C14.1211 12.3669 13.682 12.8616 13.682 13.4704C13.682 14.0793 14.1211 14.5739 14.6614 14.5739C15.2018 14.5739 15.6408 14.0793 15.6408 13.4704C15.6408 12.8616 15.2018 12.3669 14.6614 12.3669ZM9.81507 16.115C10.1591 16.9165 11.223 17.6942 12.5 17.6942C13.777 17.6942 14.8577 16.9165 15.2018 16.115C14.577 16.5693 13.5913 16.8761 12.5 16.8761C11.4087 16.8761 10.4399 16.5693 9.81507 16.115Z" fill="#030A1A"/>
</symbol><symbol id="ruble" viewBox="0 0 30 42">
<path fill-rule="evenodd" clip-rule="evenodd" d="M0 17H6V23H0V17Z" fill="#102654"/>
<path fill-rule="evenodd" clip-rule="evenodd" d="M3.65854 28.3214V18H9.65854V28.3214H21V34.3214H9.65854V42H3.65854V34.3214H0V28.3214H3.65854Z" fill="#102654"/>
<path fill-rule="evenodd" clip-rule="evenodd" d="M18.5 6H10V17H18.5C21.5376 17 24 14.5376 24 11.5C24 8.46243 21.5376 6 18.5 6ZM4 0V23H18.5C24.8513 23 30 17.8513 30 11.5C30 5.14873 24.8513 0 18.5 0H4Z" fill="#102654"/>
</symbol><symbol id="vk" viewBox="0 0 25 25">
<path d="M12.5 0C5.59692 0 0 5.59692 0 12.5C0 19.4031 5.59692 25 12.5 25C19.4031 25 25 19.4031 25 12.5C25 5.59692 19.4031 0 12.5 0Z" fill="white"/>
<path d="M13.7227 15.0518C14.1654 14.9087 14.7322 15.9964 15.3355 16.4127C15.7884 16.728 16.1352 16.6599 16.1352 16.6599L17.7434 16.6368C17.7434 16.6368 18.5839 16.5849 18.1866 15.9172C18.1537 15.8616 17.9536 15.4222 16.9896 14.5179C15.9815 13.5718 16.1181 13.7251 17.3318 12.0896C18.0713 11.0927 18.3671 10.4838 18.2745 10.2244C18.1856 9.97486 17.6425 10.0397 17.6425 10.0397L15.8305 10.0522C15.6541 10.0527 15.5046 10.1073 15.4365 10.2907C15.4351 10.2925 15.1489 11.0621 14.7674 11.7164C13.9612 13.1005 13.6394 13.1741 13.506 13.0875C13.2 12.887 13.2773 12.2832 13.2773 11.8539C13.2773 10.5125 13.4773 9.9531 12.8855 9.80863C12.6878 9.76047 12.5433 9.72898 12.0391 9.72435C11.3945 9.71463 10.8472 9.72435 10.5369 9.8767C10.3309 9.97996 10.173 10.2064 10.2688 10.2194C10.3892 10.2356 10.6592 10.2934 10.8037 10.4907C10.9893 10.7463 10.9838 11.3191 10.9838 11.3191C10.9838 11.3191 11.0898 12.8986 10.7337 13.0944C10.4893 13.2287 10.1549 12.9546 9.43581 11.6979C9.06861 11.0552 8.79124 10.3448 8.79124 10.3448C8.79124 10.3448 8.73753 10.2129 8.64029 10.1406C8.52452 10.055 8.36246 10.0277 8.36246 10.0277L6.64268 10.0388C6.64268 10.0388 6.3843 10.0462 6.28938 10.1601C6.2051 10.261 6.28243 10.4694 6.28243 10.4694C6.28243 10.4694 7.62945 13.6557 9.15474 15.2606C10.5532 16.734 12.1423 16.6363 12.1423 16.6363H12.8624C12.8624 16.6363 13.0796 16.6113 13.1907 16.4918C13.2944 16.3807 13.2898 16.1719 13.2898 16.1719C13.2898 16.1719 13.2754 15.1953 13.7227 15.0518Z" fill="#030A1A"/>
</symbol></svg>